<mxfile host="app.diagrams.net" modified="2022-11-02T10:35:02.216Z" agent="5.0 (Macintosh; Intel Mac OS X 10_15_7) AppleWebKit/537.36 (KHTML, like Gecko) Chrome/107.0.0.0 Safari/537.36" etag="KcpycP8If7hivRLp7_KD" version="20.5.1" type="github">
  <diagram id="C5RBs43oDa-KdzZeNtuy" name="Page-1">
    <mxGraphModel dx="2010" dy="1937" grid="1" gridSize="10" guides="1" tooltips="1" connect="1" arrows="1" fold="1" page="1" pageScale="1" pageWidth="827" pageHeight="1169" math="0" shadow="0">
      <root>
        <mxCell id="WIyWlLk6GJQsqaUBKTNV-0" />
        <mxCell id="WIyWlLk6GJQsqaUBKTNV-1" parent="WIyWlLk6GJQsqaUBKTNV-0" />
        <mxCell id="zkfFHV4jXpPFQw0GAbJ--6" value="SystemServerExtImpl" style="swimlane;fontStyle=1;align=center;verticalAlign=top;childLayout=stackLayout;horizontal=1;startSize=26;horizontalStack=0;resizeParent=1;resizeLast=0;collapsible=1;marginBottom=0;rounded=0;shadow=0;strokeWidth=1;" parent="WIyWlLk6GJQsqaUBKTNV-1" vertex="1">
          <mxGeometry x="-147" y="260" width="206" height="194" as="geometry">
            <mxRectangle x="120" y="360" width="160" height="26" as="alternateBounds" />
          </mxGeometry>
        </mxCell>
        <mxCell id="zkfFHV4jXpPFQw0GAbJ--7" value="mHelper OplusSystemServerHelper" style="text;align=left;verticalAlign=top;spacingLeft=4;spacingRight=4;overflow=hidden;rotatable=0;points=[[0,0.5],[1,0.5]];portConstraint=eastwest;" parent="zkfFHV4jXpPFQw0GAbJ--6" vertex="1">
          <mxGeometry y="26" width="206" height="26" as="geometry" />
        </mxCell>
        <mxCell id="zkfFHV4jXpPFQw0GAbJ--8" value="mOplusFeaturesStart Feature" style="text;align=left;verticalAlign=top;spacingLeft=4;spacingRight=4;overflow=hidden;rotatable=0;points=[[0,0.5],[1,0.5]];portConstraint=eastwest;rounded=0;shadow=0;html=0;" parent="zkfFHV4jXpPFQw0GAbJ--6" vertex="1">
          <mxGeometry y="52" width="206" height="26" as="geometry" />
        </mxCell>
        <mxCell id="zkfFHV4jXpPFQw0GAbJ--9" value="" style="line;html=1;strokeWidth=1;align=left;verticalAlign=middle;spacingTop=-1;spacingLeft=3;spacingRight=3;rotatable=0;labelPosition=right;points=[];portConstraint=eastwest;" parent="zkfFHV4jXpPFQw0GAbJ--6" vertex="1">
          <mxGeometry y="78" width="206" height="8" as="geometry" />
        </mxCell>
        <mxCell id="zkfFHV4jXpPFQw0GAbJ--10" value="+ initSystemServer()" style="text;align=left;verticalAlign=top;spacingLeft=4;spacingRight=4;overflow=hidden;rotatable=0;points=[[0,0.5],[1,0.5]];portConstraint=eastwest;fontStyle=0" parent="zkfFHV4jXpPFQw0GAbJ--6" vertex="1">
          <mxGeometry y="86" width="206" height="26" as="geometry" />
        </mxCell>
        <mxCell id="zkfFHV4jXpPFQw0GAbJ--11" value="+ startBootstrapServices()" style="text;align=left;verticalAlign=top;spacingLeft=4;spacingRight=4;overflow=hidden;rotatable=0;points=[[0,0.5],[1,0.5]];portConstraint=eastwest;" parent="zkfFHV4jXpPFQw0GAbJ--6" vertex="1">
          <mxGeometry y="112" width="206" height="26" as="geometry" />
        </mxCell>
        <mxCell id="eX9UmPd5lJKmrZ-AF5zG-4" value="+ startCoreServices()" style="text;align=left;verticalAlign=top;spacingLeft=4;spacingRight=4;overflow=hidden;rotatable=0;points=[[0,0.5],[1,0.5]];portConstraint=eastwest;" vertex="1" parent="zkfFHV4jXpPFQw0GAbJ--6">
          <mxGeometry y="138" width="206" height="26" as="geometry" />
        </mxCell>
        <mxCell id="eX9UmPd5lJKmrZ-AF5zG-5" value="+ addOplusDevicePolicyService()" style="text;align=left;verticalAlign=top;spacingLeft=4;spacingRight=4;overflow=hidden;rotatable=0;points=[[0,0.5],[1,0.5]];portConstraint=eastwest;fontStyle=4" vertex="1" parent="zkfFHV4jXpPFQw0GAbJ--6">
          <mxGeometry y="164" width="206" height="30" as="geometry" />
        </mxCell>
        <object label="«interface»&lt;br&gt;&lt;b&gt;ISystemServerExt&lt;br&gt;&lt;/b&gt;" id="eX9UmPd5lJKmrZ-AF5zG-0">
          <mxCell style="html=1;" vertex="1" parent="WIyWlLk6GJQsqaUBKTNV-1">
            <mxGeometry x="-149" y="160" width="210" height="50" as="geometry" />
          </mxCell>
        </object>
        <mxCell id="eX9UmPd5lJKmrZ-AF5zG-6" value="SystemServer" style="swimlane;fontStyle=1;align=center;verticalAlign=top;childLayout=stackLayout;horizontal=1;startSize=26;horizontalStack=0;resizeParent=1;resizeParentMax=0;resizeLast=0;collapsible=1;marginBottom=0;" vertex="1" parent="WIyWlLk6GJQsqaUBKTNV-1">
          <mxGeometry x="-230" y="-32" width="372" height="112" as="geometry" />
        </mxCell>
        <mxCell id="eX9UmPd5lJKmrZ-AF5zG-7" value="+ mSystemServerExt: ISystemServerExt" style="text;strokeColor=none;fillColor=none;align=left;verticalAlign=top;spacingLeft=4;spacingRight=4;overflow=hidden;rotatable=0;points=[[0,0.5],[1,0.5]];portConstraint=eastwest;" vertex="1" parent="eX9UmPd5lJKmrZ-AF5zG-6">
          <mxGeometry y="26" width="372" height="26" as="geometry" />
        </mxCell>
        <mxCell id="eX9UmPd5lJKmrZ-AF5zG-8" value="" style="line;strokeWidth=1;fillColor=none;align=left;verticalAlign=middle;spacingTop=-1;spacingLeft=3;spacingRight=3;rotatable=0;labelPosition=right;points=[];portConstraint=eastwest;strokeColor=inherit;" vertex="1" parent="eX9UmPd5lJKmrZ-AF5zG-6">
          <mxGeometry y="52" width="372" height="8" as="geometry" />
        </mxCell>
        <mxCell id="eX9UmPd5lJKmrZ-AF5zG-29" value="+ startBootstrapServices:addOplusDevicePolicyService()" style="text;strokeColor=none;fillColor=none;align=left;verticalAlign=top;spacingLeft=4;spacingRight=4;overflow=hidden;rotatable=0;points=[[0,0.5],[1,0.5]];portConstraint=eastwest;fontStyle=4" vertex="1" parent="eX9UmPd5lJKmrZ-AF5zG-6">
          <mxGeometry y="60" width="372" height="26" as="geometry" />
        </mxCell>
        <mxCell id="eX9UmPd5lJKmrZ-AF5zG-9" value="+ run(): void" style="text;strokeColor=none;fillColor=none;align=left;verticalAlign=top;spacingLeft=4;spacingRight=4;overflow=hidden;rotatable=0;points=[[0,0.5],[1,0.5]];portConstraint=eastwest;" vertex="1" parent="eX9UmPd5lJKmrZ-AF5zG-6">
          <mxGeometry y="86" width="372" height="26" as="geometry" />
        </mxCell>
        <mxCell id="eX9UmPd5lJKmrZ-AF5zG-11" value="" style="endArrow=diamondThin;endFill=1;endSize=24;html=1;rounded=0;exitX=0.5;exitY=0;exitDx=0;exitDy=0;" edge="1" parent="WIyWlLk6GJQsqaUBKTNV-1" source="eX9UmPd5lJKmrZ-AF5zG-0" target="eX9UmPd5lJKmrZ-AF5zG-9">
          <mxGeometry width="160" relative="1" as="geometry">
            <mxPoint x="-227" y="280" as="sourcePoint" />
            <mxPoint x="-67" y="280" as="targetPoint" />
          </mxGeometry>
        </mxCell>
        <mxCell id="eX9UmPd5lJKmrZ-AF5zG-12" value="OplusSystemServerHelper" style="swimlane;fontStyle=1;align=center;verticalAlign=top;childLayout=stackLayout;horizontal=1;startSize=26;horizontalStack=0;resizeParent=1;resizeParentMax=0;resizeLast=0;collapsible=1;marginBottom=0;" vertex="1" parent="WIyWlLk6GJQsqaUBKTNV-1">
          <mxGeometry x="370" y="260" width="290" height="86" as="geometry" />
        </mxCell>
        <mxCell id="eX9UmPd5lJKmrZ-AF5zG-13" value="+ mOplusSystemServerEx: IOplusSystemServerEx" style="text;strokeColor=none;fillColor=none;align=left;verticalAlign=top;spacingLeft=4;spacingRight=4;overflow=hidden;rotatable=0;points=[[0,0.5],[1,0.5]];portConstraint=eastwest;" vertex="1" parent="eX9UmPd5lJKmrZ-AF5zG-12">
          <mxGeometry y="26" width="290" height="26" as="geometry" />
        </mxCell>
        <mxCell id="eX9UmPd5lJKmrZ-AF5zG-14" value="" style="line;strokeWidth=1;fillColor=none;align=left;verticalAlign=middle;spacingTop=-1;spacingLeft=3;spacingRight=3;rotatable=0;labelPosition=right;points=[];portConstraint=eastwest;strokeColor=inherit;" vertex="1" parent="eX9UmPd5lJKmrZ-AF5zG-12">
          <mxGeometry y="52" width="290" height="8" as="geometry" />
        </mxCell>
        <mxCell id="eX9UmPd5lJKmrZ-AF5zG-15" value="+ addOplusDevicePolicyService()" style="text;strokeColor=none;fillColor=none;align=left;verticalAlign=top;spacingLeft=4;spacingRight=4;overflow=hidden;rotatable=0;points=[[0,0.5],[1,0.5]];portConstraint=eastwest;fontStyle=4" vertex="1" parent="eX9UmPd5lJKmrZ-AF5zG-12">
          <mxGeometry y="60" width="290" height="26" as="geometry" />
        </mxCell>
        <mxCell id="eX9UmPd5lJKmrZ-AF5zG-16" value="«interface»&lt;br&gt;&lt;b&gt;IOplusSystemServerEx&lt;/b&gt;" style="html=1;" vertex="1" parent="WIyWlLk6GJQsqaUBKTNV-1">
          <mxGeometry x="765" y="30" width="260" height="50" as="geometry" />
        </mxCell>
        <mxCell id="eX9UmPd5lJKmrZ-AF5zG-17" value="" style="endArrow=diamondThin;endFill=1;endSize=24;html=1;rounded=0;exitX=0;exitY=0.5;exitDx=0;exitDy=0;entryX=1;entryY=0.5;entryDx=0;entryDy=0;" edge="1" parent="WIyWlLk6GJQsqaUBKTNV-1" source="eX9UmPd5lJKmrZ-AF5zG-13" target="zkfFHV4jXpPFQw0GAbJ--7">
          <mxGeometry width="160" relative="1" as="geometry">
            <mxPoint x="435" y="270" as="sourcePoint" />
            <mxPoint x="355.9999999999999" y="270" as="targetPoint" />
          </mxGeometry>
        </mxCell>
        <mxCell id="eX9UmPd5lJKmrZ-AF5zG-18" value="OplusSystemServerEx" style="swimlane;fontStyle=1;align=center;verticalAlign=top;childLayout=stackLayout;horizontal=1;startSize=26;horizontalStack=0;resizeParent=1;resizeParentMax=0;resizeLast=0;collapsible=1;marginBottom=0;" vertex="1" parent="WIyWlLk6GJQsqaUBKTNV-1">
          <mxGeometry x="760" y="226" width="270" height="138" as="geometry" />
        </mxCell>
        <mxCell id="eX9UmPd5lJKmrZ-AF5zG-19" value="+ DEFAULT: IOplusSysetmServerEx" style="text;strokeColor=none;fillColor=none;align=left;verticalAlign=top;spacingLeft=4;spacingRight=4;overflow=hidden;rotatable=0;points=[[0,0.5],[1,0.5]];portConstraint=eastwest;" vertex="1" parent="eX9UmPd5lJKmrZ-AF5zG-18">
          <mxGeometry y="26" width="270" height="26" as="geometry" />
        </mxCell>
        <mxCell id="eX9UmPd5lJKmrZ-AF5zG-20" value="" style="line;strokeWidth=1;fillColor=none;align=left;verticalAlign=middle;spacingTop=-1;spacingLeft=3;spacingRight=3;rotatable=0;labelPosition=right;points=[];portConstraint=eastwest;strokeColor=inherit;" vertex="1" parent="eX9UmPd5lJKmrZ-AF5zG-18">
          <mxGeometry y="52" width="270" height="8" as="geometry" />
        </mxCell>
        <mxCell id="eX9UmPd5lJKmrZ-AF5zG-21" value="+ getDefault(): IOplusSystemServerEx" style="text;strokeColor=none;fillColor=none;align=left;verticalAlign=top;spacingLeft=4;spacingRight=4;overflow=hidden;rotatable=0;points=[[0,0.5],[1,0.5]];portConstraint=eastwest;" vertex="1" parent="eX9UmPd5lJKmrZ-AF5zG-18">
          <mxGeometry y="60" width="270" height="26" as="geometry" />
        </mxCell>
        <mxCell id="eX9UmPd5lJKmrZ-AF5zG-25" value="+ addOplusDevicePolicyService()" style="text;strokeColor=none;fillColor=none;align=left;verticalAlign=top;spacingLeft=4;spacingRight=4;overflow=hidden;rotatable=0;points=[[0,0.5],[1,0.5]];portConstraint=eastwest;fontStyle=4" vertex="1" parent="eX9UmPd5lJKmrZ-AF5zG-18">
          <mxGeometry y="86" width="270" height="26" as="geometry" />
        </mxCell>
        <mxCell id="eX9UmPd5lJKmrZ-AF5zG-26" value="+ startOplusLightService()" style="text;strokeColor=none;fillColor=none;align=left;verticalAlign=top;spacingLeft=4;spacingRight=4;overflow=hidden;rotatable=0;points=[[0,0.5],[1,0.5]];portConstraint=eastwest;" vertex="1" parent="eX9UmPd5lJKmrZ-AF5zG-18">
          <mxGeometry y="112" width="270" height="26" as="geometry" />
        </mxCell>
        <mxCell id="eX9UmPd5lJKmrZ-AF5zG-23" value="" style="endArrow=block;dashed=1;endFill=0;endSize=12;html=1;rounded=0;entryX=0.5;entryY=1;entryDx=0;entryDy=0;" edge="1" parent="WIyWlLk6GJQsqaUBKTNV-1" source="eX9UmPd5lJKmrZ-AF5zG-18" target="eX9UmPd5lJKmrZ-AF5zG-16">
          <mxGeometry width="160" relative="1" as="geometry">
            <mxPoint x="500" y="150" as="sourcePoint" />
            <mxPoint x="660" y="150" as="targetPoint" />
          </mxGeometry>
        </mxCell>
        <mxCell id="eX9UmPd5lJKmrZ-AF5zG-24" value="" style="endArrow=block;dashed=1;endFill=0;endSize=12;html=1;rounded=0;exitX=0.5;exitY=0;exitDx=0;exitDy=0;entryX=0.5;entryY=1;entryDx=0;entryDy=0;" edge="1" parent="WIyWlLk6GJQsqaUBKTNV-1" source="zkfFHV4jXpPFQw0GAbJ--6" target="eX9UmPd5lJKmrZ-AF5zG-0">
          <mxGeometry width="160" relative="1" as="geometry">
            <mxPoint x="63" y="200" as="sourcePoint" />
            <mxPoint x="167" y="140" as="targetPoint" />
          </mxGeometry>
        </mxCell>
        <mxCell id="eX9UmPd5lJKmrZ-AF5zG-28" value="" style="endArrow=diamondThin;endFill=1;endSize=24;html=1;rounded=0;entryX=1;entryY=0.5;entryDx=0;entryDy=0;exitX=0;exitY=0.5;exitDx=0;exitDy=0;" edge="1" parent="WIyWlLk6GJQsqaUBKTNV-1" source="eX9UmPd5lJKmrZ-AF5zG-21" target="eX9UmPd5lJKmrZ-AF5zG-13">
          <mxGeometry width="160" relative="1" as="geometry">
            <mxPoint x="750" y="270" as="sourcePoint" />
            <mxPoint x="910" y="420" as="targetPoint" />
          </mxGeometry>
        </mxCell>
        <mxCell id="eX9UmPd5lJKmrZ-AF5zG-34" value="«interface»&lt;br&gt;&lt;b&gt;IOplusCommonSysemServerEx&lt;/b&gt;" style="html=1;" vertex="1" parent="WIyWlLk6GJQsqaUBKTNV-1">
          <mxGeometry x="763" y="-50" width="265" height="50" as="geometry" />
        </mxCell>
        <mxCell id="eX9UmPd5lJKmrZ-AF5zG-35" value="«interface»&lt;br&gt;&lt;b&gt;IOplusCommonFeature&lt;/b&gt;" style="html=1;" vertex="1" parent="WIyWlLk6GJQsqaUBKTNV-1">
          <mxGeometry x="763" y="-130" width="265" height="50" as="geometry" />
        </mxCell>
        <mxCell id="eX9UmPd5lJKmrZ-AF5zG-36" value="" style="endArrow=block;dashed=1;endFill=0;endSize=12;html=1;rounded=0;entryX=0.5;entryY=1;entryDx=0;entryDy=0;" edge="1" parent="WIyWlLk6GJQsqaUBKTNV-1" source="eX9UmPd5lJKmrZ-AF5zG-16" target="eX9UmPd5lJKmrZ-AF5zG-34">
          <mxGeometry width="160" relative="1" as="geometry">
            <mxPoint x="898" y="30" as="sourcePoint" />
            <mxPoint x="905" y="90" as="targetPoint" />
          </mxGeometry>
        </mxCell>
        <mxCell id="eX9UmPd5lJKmrZ-AF5zG-38" value="" style="endArrow=block;dashed=1;endFill=0;endSize=12;html=1;rounded=0;entryX=0.5;entryY=1;entryDx=0;entryDy=0;exitX=0.5;exitY=0;exitDx=0;exitDy=0;" edge="1" parent="WIyWlLk6GJQsqaUBKTNV-1" source="eX9UmPd5lJKmrZ-AF5zG-34" target="eX9UmPd5lJKmrZ-AF5zG-35">
          <mxGeometry width="160" relative="1" as="geometry">
            <mxPoint x="905.227272727273" y="40" as="sourcePoint" />
            <mxPoint x="905.5" y="10" as="targetPoint" />
          </mxGeometry>
        </mxCell>
        <mxCell id="eX9UmPd5lJKmrZ-AF5zG-41" value="OplusDefaultSystemServerEx" style="swimlane;fontStyle=1;align=center;verticalAlign=top;childLayout=stackLayout;horizontal=1;startSize=26;horizontalStack=0;resizeParent=1;resizeParentMax=0;resizeLast=0;collapsible=1;marginBottom=0;" vertex="1" parent="WIyWlLk6GJQsqaUBKTNV-1">
          <mxGeometry x="260" y="-19" width="340" height="86" as="geometry" />
        </mxCell>
        <mxCell id="eX9UmPd5lJKmrZ-AF5zG-42" value="+ mSystemServiceManager: SystemServiceManager" style="text;strokeColor=none;fillColor=none;align=left;verticalAlign=top;spacingLeft=4;spacingRight=4;overflow=hidden;rotatable=0;points=[[0,0.5],[1,0.5]];portConstraint=eastwest;" vertex="1" parent="eX9UmPd5lJKmrZ-AF5zG-41">
          <mxGeometry y="26" width="340" height="26" as="geometry" />
        </mxCell>
        <mxCell id="eX9UmPd5lJKmrZ-AF5zG-43" value="" style="line;strokeWidth=1;fillColor=none;align=left;verticalAlign=middle;spacingTop=-1;spacingLeft=3;spacingRight=3;rotatable=0;labelPosition=right;points=[];portConstraint=eastwest;strokeColor=inherit;" vertex="1" parent="eX9UmPd5lJKmrZ-AF5zG-41">
          <mxGeometry y="52" width="340" height="8" as="geometry" />
        </mxCell>
        <mxCell id="eX9UmPd5lJKmrZ-AF5zG-44" value="+ mSystemContext: Context" style="text;strokeColor=none;fillColor=none;align=left;verticalAlign=top;spacingLeft=4;spacingRight=4;overflow=hidden;rotatable=0;points=[[0,0.5],[1,0.5]];portConstraint=eastwest;" vertex="1" parent="eX9UmPd5lJKmrZ-AF5zG-41">
          <mxGeometry y="60" width="340" height="26" as="geometry" />
        </mxCell>
        <mxCell id="eX9UmPd5lJKmrZ-AF5zG-45" value="Extends" style="endArrow=block;endSize=16;endFill=0;html=1;rounded=0;exitX=0.5;exitY=0;exitDx=0;exitDy=0;entryX=1;entryY=0.5;entryDx=0;entryDy=0;" edge="1" parent="WIyWlLk6GJQsqaUBKTNV-1" source="eX9UmPd5lJKmrZ-AF5zG-18" target="eX9UmPd5lJKmrZ-AF5zG-42">
          <mxGeometry width="160" relative="1" as="geometry">
            <mxPoint x="740" y="70" as="sourcePoint" />
            <mxPoint x="605" y="140" as="targetPoint" />
          </mxGeometry>
        </mxCell>
        <mxCell id="eX9UmPd5lJKmrZ-AF5zG-49" value="" style="endArrow=block;dashed=1;endFill=0;endSize=12;html=1;rounded=0;entryX=0;entryY=0.5;entryDx=0;entryDy=0;exitX=1;exitY=0.5;exitDx=0;exitDy=0;" edge="1" parent="WIyWlLk6GJQsqaUBKTNV-1" source="eX9UmPd5lJKmrZ-AF5zG-42" target="eX9UmPd5lJKmrZ-AF5zG-34">
          <mxGeometry width="160" relative="1" as="geometry">
            <mxPoint x="905" y="236" as="sourcePoint" />
            <mxPoint x="905" y="90" as="targetPoint" />
          </mxGeometry>
        </mxCell>
      </root>
    </mxGraphModel>
  </diagram>
</mxfile>
